<svg version="1.1" id="Layer_1" xmlns="http://www.w3.org/2000/svg" xmlns:xlink="http://www.w3.org/1999/xlink" x="0px" y="0px"
	 width="100%" viewBox="0 0 512 512" enable-background="new 0 0 512 512" xml:space="preserve">
<path fill="#000000" opacity="1.000000" stroke="none" 
	d="
M513.000000,470.000000 
	C513.000000,484.325195 513.000000,498.650391 513.000000,512.981689 
	C342.438324,512.987793 171.876663,512.987793 1.000000,512.987793 
	C1.000000,441.312744 1.000000,369.625031 1.257487,297.136292 
	C2.184899,297.238434 3.046499,298.055878 3.495079,299.058136 
	C7.969586,309.055450 15.779291,313.094025 26.557941,313.063660 
	C77.047340,312.921295 127.537361,313.000397 178.027161,313.000397 
	C179.947083,313.000397 181.866989,313.000397 183.755569,313.000397 
	C183.755569,321.667664 183.755569,329.603058 183.755569,337.999603 
	C181.730209,337.999603 179.941742,337.999603 178.153275,337.999603 
	C160.490173,337.999634 142.827042,337.976105 125.164009,338.010162 
	C116.997375,338.025909 109.494492,342.308075 108.300301,348.770050 
	C107.035355,355.614899 107.095833,362.704651 106.583015,369.612244 
	C175.736435,369.612244 243.781204,369.612244 312.000397,369.612244 
	C312.000397,364.733337 311.688324,360.214355 312.062988,355.753021 
	C312.944000,345.261597 304.093140,337.861267 294.276093,337.964172 
	C280.780273,338.105652 267.281921,337.999603 253.784637,337.999603 
	C247.667496,337.999603 241.550369,337.999603 235.310028,337.999603 
	C235.310028,329.436340 235.310028,321.383453 235.310028,313.000397 
	C237.588394,313.000397 239.560303,313.000397 241.532196,313.000397 
	C292.022003,313.000397 342.512421,312.857849 393.001190,313.085144 
	C408.639404,313.155548 417.973511,302.406067 417.980957,287.752777 
	C418.021790,207.602325 417.970459,127.451813 418.029694,47.301384 
	C418.039642,33.851925 407.917084,21.936228 392.609283,21.947844 
	C270.467346,22.040518 148.325317,22.029385 26.183393,21.940804 
	C16.795214,21.933994 5.417947,28.291496 2.924785,37.614799 
	C2.766734,38.205841 1.663513,38.544128 1.000000,39.000000 
	C1.000000,26.338865 1.000000,13.677729 1.000000,1.012445 
	C171.586609,1.008297 342.173218,1.008297 513.000000,1.008297 
	C513.000000,151.354141 513.000000,301.708405 512.696777,452.856079 
	C511.962158,453.165649 511.279083,452.746338 511.135986,452.188477 
	C507.354767,437.452393 496.907837,428.511780 484.079407,422.162903 
	C471.812897,416.092072 458.557190,414.390411 444.860260,414.856903 
	C438.242004,415.082306 432.330963,416.589081 426.654572,419.766937 
	C425.767914,420.263336 424.290558,420.375214 423.350159,420.001373 
	C413.823944,416.214020 412.064362,411.998444 414.968719,402.162079 
	C416.939148,395.488586 419.827972,388.579010 419.594788,381.869202 
	C419.129517,368.480164 411.077911,360.046631 398.383453,355.667572 
	C387.485474,351.908112 376.248199,351.381989 364.945923,351.060852 
	C363.214935,351.011658 361.275757,351.409851 359.754578,352.211548 
	C355.937775,354.223083 355.506836,357.947540 356.103973,361.666779 
	C356.621094,364.887634 358.735535,366.807648 362.200592,367.007568 
	C367.133942,367.292236 372.093414,367.424835 376.984894,368.060211 
	C383.601807,368.919617 390.153320,370.093903 395.789307,374.218933 
	C400.543732,377.698822 402.006683,381.638580 400.285095,387.327423 
	C398.593475,392.917358 396.899414,398.510315 395.392731,404.151672 
	C392.749847,414.047333 398.184174,426.785767 407.286835,431.632233 
	C412.621185,434.472351 419.137787,436.109802 417.240051,444.463501 
	C417.188324,444.691193 417.652069,444.994232 417.717651,445.296387 
	C419.752258,454.670349 426.120941,461.128662 432.802765,467.243317 
	C449.398224,482.430054 468.671967,489.869202 491.292969,485.872498 
	C499.543488,484.414825 506.726044,480.547943 510.433838,472.193420 
	C510.845703,471.265442 512.123718,470.721863 513.000000,470.000000 
M390.984833,468.631165 
	C389.991821,464.185120 388.914703,459.755951 388.020416,455.290131 
	C384.312683,436.775116 380.736816,418.233337 376.948059,399.735107 
	C375.516846,392.747375 372.355713,388.870148 364.309784,388.884247 
	C262.159515,389.063385 160.008774,389.001373 57.858154,389.004089 
	C51.601265,389.004242 47.298210,392.207184 46.086807,397.930145 
	C44.974346,403.185699 44.049301,408.480621 43.010239,413.752045 
	C38.633465,435.956604 34.330582,458.176270 29.819330,480.353516 
	C27.963549,489.476532 29.697018,491.997253 38.687729,491.997345 
	C130.006714,491.998199 221.325699,491.997803 312.644684,491.997803 
	C337.140839,491.997772 361.636993,492.015564 386.133118,491.985382 
	C392.379425,491.977692 395.116302,488.393311 393.731598,482.391235 
	C392.744354,478.111969 391.903839,473.798889 390.984833,468.631165 
z"/>
<path fill="#78A3AD" opacity="1.000000" stroke="none" 
	d="
M1.000000,39.468658 
	C1.663513,38.544128 2.766734,38.205841 2.924785,37.614799 
	C5.417947,28.291496 16.795214,21.933994 26.183393,21.940804 
	C148.325317,22.029385 270.467346,22.040518 392.609283,21.947844 
	C407.917084,21.936228 418.039642,33.851925 418.029694,47.301384 
	C417.970459,127.451813 418.021790,207.602325 417.980957,287.752777 
	C417.973511,302.406067 408.639404,313.155548 393.001190,313.085144 
	C342.512421,312.857849 292.022003,313.000397 241.532196,313.000397 
	C239.560303,313.000397 237.588394,313.000397 235.310028,313.000397 
	C235.310028,321.383453 235.310028,329.436340 235.310028,337.999603 
	C241.550369,337.999603 247.667496,337.999603 253.784637,337.999603 
	C267.281921,337.999603 280.780273,338.105652 294.276093,337.964172 
	C304.093140,337.861267 312.944000,345.261597 312.062988,355.753021 
	C311.688324,360.214355 312.000397,364.733337 312.000397,369.612244 
	C243.781204,369.612244 175.736435,369.612244 106.583015,369.612244 
	C107.095833,362.704651 107.035355,355.614899 108.300301,348.770050 
	C109.494492,342.308075 116.997375,338.025909 125.164009,338.010162 
	C142.827042,337.976105 160.490173,337.999634 178.153275,337.999603 
	C179.941742,337.999603 181.730209,337.999603 183.755569,337.999603 
	C183.755569,329.603058 183.755569,321.667664 183.755569,313.000397 
	C181.866989,313.000397 179.947083,313.000397 178.027161,313.000397 
	C127.537361,313.000397 77.047340,312.921295 26.557941,313.063660 
	C15.779291,313.094025 7.969586,309.055450 3.495079,299.058136 
	C3.046499,298.055878 2.184899,297.238434 1.257487,296.667603 
	C1.000000,211.312439 1.000000,125.624878 1.000000,39.468658 
M339.500000,56.009441 
	C245.206039,56.016151 150.912094,56.022583 56.618134,56.031326 
	C54.452503,56.031528 52.280972,55.959660 50.122292,56.089417 
	C41.923851,56.582207 35.626110,61.948620 33.968777,69.973785 
	C33.501163,72.238068 33.320042,74.599426 33.318466,76.916458 
	C33.283264,128.728134 33.290359,180.539810 33.298615,232.351501 
	C33.298828,233.682236 33.328354,235.020767 33.468750,236.342422 
	C34.615776,247.140106 41.157139,253.160675 52.052502,253.163651 
	C157.175232,253.192444 262.297974,253.194000 367.420715,253.166550 
	C378.483826,253.163651 385.811310,246.155441 385.831238,235.167206 
	C385.928619,181.523132 385.920532,127.878738 385.837036,74.234627 
	C385.820190,63.401749 378.333008,56.147793 367.488525,56.036938 
	C358.493195,55.944981 349.496246,56.012558 339.500000,56.009441 
z"/>
<path fill="#78A3AD" opacity="1.000000" stroke="none" 
	d="
M513.000000,469.532410 
	C512.123718,470.721863 510.845703,471.265442 510.433838,472.193420 
	C506.726044,480.547943 499.543488,484.414825 491.292969,485.872498 
	C468.671967,489.869202 449.398224,482.430054 432.802765,467.243317 
	C426.120941,461.128662 419.752258,454.670349 417.717651,445.296387 
	C417.652069,444.994232 417.188324,444.691193 417.240051,444.463501 
	C419.137787,436.109802 412.621185,434.472351 407.286835,431.632233 
	C398.184174,426.785767 392.749847,414.047333 395.392731,404.151672 
	C396.899414,398.510315 398.593475,392.917358 400.285095,387.327423 
	C402.006683,381.638580 400.543732,377.698822 395.789307,374.218933 
	C390.153320,370.093903 383.601807,368.919617 376.984894,368.060211 
	C372.093414,367.424835 367.133942,367.292236 362.200592,367.007568 
	C358.735535,366.807648 356.621094,364.887634 356.103973,361.666779 
	C355.506836,357.947540 355.937775,354.223083 359.754578,352.211548 
	C361.275757,351.409851 363.214935,351.011658 364.945923,351.060852 
	C376.248199,351.381989 387.485474,351.908112 398.383453,355.667572 
	C411.077911,360.046631 419.129517,368.480164 419.594788,381.869202 
	C419.827972,388.579010 416.939148,395.488586 414.968719,402.162079 
	C412.064362,411.998444 413.823944,416.214020 423.350159,420.001373 
	C424.290558,420.375214 425.767914,420.263336 426.654572,419.766937 
	C432.330963,416.589081 438.242004,415.082306 444.860260,414.856903 
	C458.557190,414.390411 471.812897,416.092072 484.079407,422.162903 
	C496.907837,428.511780 507.354767,437.452393 511.135986,452.188477 
	C511.279083,452.746338 511.962158,453.165649 512.696777,453.324768 
	C513.000000,458.354919 513.000000,463.709869 513.000000,469.532410 
z"/>
<path fill="#79A4AE" opacity="1.000000" stroke="none" 
	d="
M390.991333,469.066040 
	C391.903839,473.798889 392.744354,478.111969 393.731598,482.391235 
	C395.116302,488.393311 392.379425,491.977692 386.133118,491.985382 
	C361.636993,492.015564 337.140839,491.997772 312.644684,491.997803 
	C221.325699,491.997803 130.006714,491.998199 38.687729,491.997345 
	C29.697018,491.997253 27.963549,489.476532 29.819330,480.353516 
	C34.330582,458.176270 38.633465,435.956604 43.010239,413.752045 
	C44.049301,408.480621 44.974346,403.185699 46.086807,397.930145 
	C47.298210,392.207184 51.601265,389.004242 57.858154,389.004089 
	C160.008774,389.001373 262.159515,389.063385 364.309784,388.884247 
	C372.355713,388.870148 375.516846,392.747375 376.948059,399.735107 
	C380.736816,418.233337 384.312683,436.775116 388.020416,455.290131 
	C388.914703,459.755951 389.991821,464.185120 390.991333,469.066040 
M331.500000,464.840424 
	C339.828522,464.831421 348.160004,464.952332 356.484436,464.763428 
	C361.278931,464.654633 364.625977,461.213959 364.632996,456.999207 
	C364.640015,452.781189 361.289886,449.537170 356.506744,449.183685 
	C355.346497,449.097931 354.175720,449.146210 353.009796,449.146210 
	C259.395325,449.144958 165.780884,449.144257 72.166420,449.151520 
	C70.503273,449.151642 68.791290,449.012512 67.186546,449.345428 
	C63.122845,450.188477 60.643852,452.733337 60.639088,456.978546 
	C60.634323,461.222168 63.099625,463.812073 67.166931,464.622009 
	C69.097099,465.006348 71.147560,464.833557 73.143539,464.833740 
	C158.929031,464.841492 244.714508,464.840302 331.500000,464.840424 
M75.992645,411.889801 
	C70.414497,412.887878 67.653992,415.773773 68.033127,420.210876 
	C68.409904,424.620514 71.700417,427.129272 77.272148,427.249359 
	C77.938255,427.263733 78.604881,427.255402 79.271263,427.255402 
	C168.067276,427.255676 256.863281,427.256470 345.659302,427.249786 
	C347.323303,427.249664 349.023895,427.363770 350.644073,427.072388 
	C354.576569,426.365204 356.878021,423.895966 357.014984,419.892517 
	C357.160309,415.645020 354.853455,412.981110 350.762756,412.073792 
	C349.166107,411.719666 347.446075,411.877258 345.782227,411.877167 
	C256.153229,411.871857 166.524246,411.874573 75.992645,411.889801 
z"/>
<path fill="#016CA2" opacity="1.000000" stroke="none" 
	d="
M340.000000,56.009453 
	C349.496246,56.012558 358.493195,55.944981 367.488525,56.036938 
	C378.333008,56.147793 385.820190,63.401749 385.837036,74.234627 
	C385.920532,127.878738 385.928619,181.523132 385.831238,235.167206 
	C385.811310,246.155441 378.483826,253.163651 367.420715,253.166550 
	C262.297974,253.194000 157.175232,253.192444 52.052502,253.163651 
	C41.157139,253.160675 34.615776,247.140106 33.468750,236.342422 
	C33.328354,235.020767 33.298828,233.682236 33.298615,232.351501 
	C33.290359,180.539810 33.283264,128.728134 33.318466,76.916458 
	C33.320042,74.599426 33.501163,72.238068 33.968777,69.973785 
	C35.626110,61.948620 41.923851,56.582207 50.122292,56.089417 
	C52.280972,55.959660 54.452503,56.031528 56.618134,56.031326 
	C150.912094,56.022583 245.206039,56.016151 340.000000,56.009453 
M51.705868,147.499847 
	C51.705868,176.574188 51.705868,205.648529 51.705868,235.083130 
	C54.028965,235.083130 55.665436,235.083115 57.301907,235.083115 
	C84.619339,235.083160 111.937386,234.994141 139.253540,235.181793 
	C143.229843,235.209106 144.927261,234.188202 146.162109,230.223633 
	C161.603165,180.648407 177.273178,131.144501 192.871948,81.618355 
	C193.607681,79.282387 194.226181,76.909485 194.937302,74.420746 
	C147.086319,74.420746 99.672432,74.420746 51.705856,74.420746 
	C51.705856,98.622971 51.705856,122.561401 51.705868,147.499847 
z"/>
<path fill="#FAFCFC" opacity="1.000000" stroke="none" 
	d="
M331.000000,464.840332 
	C244.714508,464.840302 158.929031,464.841492 73.143539,464.833740 
	C71.147560,464.833557 69.097099,465.006348 67.166931,464.622009 
	C63.099625,463.812073 60.634323,461.222168 60.639088,456.978546 
	C60.643852,452.733337 63.122845,450.188477 67.186546,449.345428 
	C68.791290,449.012512 70.503273,449.151642 72.166420,449.151520 
	C165.780884,449.144257 259.395325,449.144958 353.009796,449.146210 
	C354.175720,449.146210 355.346497,449.097931 356.506744,449.183685 
	C361.289886,449.537170 364.640015,452.781189 364.632996,456.999207 
	C364.625977,461.213959 361.278931,464.654633 356.484436,464.763428 
	C348.160004,464.952332 339.828522,464.831421 331.000000,464.840332 
z"/>
<path fill="#FFFFFF" opacity="1.000000" stroke="none" 
	d="
M76.443947,411.883179 
	C166.524246,411.874573 256.153229,411.871857 345.782227,411.877167 
	C347.446075,411.877258 349.166107,411.719666 350.762756,412.073792 
	C354.853455,412.981110 357.160309,415.645020 357.014984,419.892517 
	C356.878021,423.895966 354.576569,426.365204 350.644073,427.072388 
	C349.023895,427.363770 347.323303,427.249664 345.659302,427.249786 
	C256.863281,427.256470 168.067276,427.255676 79.271263,427.255402 
	C78.604881,427.255402 77.938255,427.263733 77.272148,427.249359 
	C71.700417,427.129272 68.409904,424.620514 68.033127,420.210876 
	C67.653992,415.773773 70.414497,412.887878 76.443947,411.883179 
z"/>
<path fill="#FEFEFF" opacity="1.000000" stroke="none" 
	d="
M51.705864,146.999847 
	C51.705856,122.561401 51.705856,98.622971 51.705856,74.420746 
	C99.672432,74.420746 147.086319,74.420746 194.937302,74.420746 
	C194.226181,76.909485 193.607681,79.282387 192.871948,81.618355 
	C177.273178,131.144501 161.603165,180.648407 146.162109,230.223633 
	C144.927261,234.188202 143.229843,235.209106 139.253540,235.181793 
	C111.937386,234.994141 84.619339,235.083160 57.301907,235.083115 
	C55.665436,235.083115 54.028965,235.083130 51.705868,235.083130 
	C51.705868,205.648529 51.705868,176.574188 51.705864,146.999847 
z"/>
</svg>